<svg width="560" height="480" viewBox="0 0 560 480" fill="none" xmlns="http://www.w3.org/2000/svg">
  <defs>
    <linearGradient id="cardBg" x1="0" y1="0" x2="560" y2="480" gradientUnits="userSpaceOnUse">
      <stop stop-color="#0f2d2a"/>
      <stop offset="1" stop-color="#0a201e"/>
    </linearGradient>
    <filter id="s" x="-8%" y="-8%" width="116%" height="116%">
      <feDropShadow dx="0" dy="6" stdDeviation="16" flood-color="#000" flood-opacity="0.3"/>
    </filter>
  </defs>

  <!-- Main card -->
  <g filter="url(#s)">
    <rect x="28" y="20" width="504" height="440" rx="18" fill="url(#cardBg)" stroke="#0D9488" stroke-opacity="0.18"/>

    <!-- Header bar -->
    <rect x="28" y="20" width="504" height="56" rx="18" fill="#0D9488" fill-opacity="0.1"/>
    <rect x="28" y="58" width="504" height="18" fill="#0D9488" fill-opacity="0.1"/>
    <path d="M68 48l-6 6 6 6" stroke="#5eead4" stroke-width="1.5" stroke-linecap="round" stroke-linejoin="round" fill="none" opacity="0.6"/>
    <path d="M492 48l6 6-6 6" stroke="#5eead4" stroke-width="1.5" stroke-linecap="round" stroke-linejoin="round" fill="none" opacity="0.6"/>
    <text x="280" y="54" text-anchor="middle" fill="#5eead4" font-family="Inter,system-ui,sans-serif" font-size="15" font-weight="600" letter-spacing="0.06em">ABRIL 2026</text>

    <!-- Day headers -->
    <g fill="#5eead4" font-family="Inter,system-ui,sans-serif" font-size="10" font-weight="500" opacity="0.5" text-anchor="middle">
      <text x="88" y="92">LUN</text>
      <text x="158" y="92">MAR</text>
      <text x="228" y="92">MIE</text>
      <text x="280" y="92">JUE</text>
      <text x="350" y="92">VIE</text>
      <text x="420" y="92">SAB</text>
      <text x="472" y="92">DOM</text>
    </g>

    <!-- Grid lines -->
    <line x1="48" y1="100" x2="512" y2="100" stroke="#0D9488" stroke-opacity="0.08"/>

    <!-- Week 1 -->
    <g font-family="Inter,system-ui,sans-serif" font-size="13" text-anchor="middle">
      <text x="228" y="126" fill="#c2f5ea" opacity="0.7">1</text>
      <text x="280" y="126" fill="#c2f5ea" opacity="0.7">2</text>
      <text x="350" y="126" fill="#c2f5ea" opacity="0.7">3</text>
      <text x="420" y="126" fill="#c2f5ea" opacity="0.35">4</text>
      <text x="472" y="126" fill="#c2f5ea" opacity="0.35">5</text>

      <!-- Week 2 -->
      <text x="88" y="166" fill="#c2f5ea" opacity="0.7">6</text>
      <text x="158" y="166" fill="#c2f5ea" opacity="0.7">7</text>
      <!-- Today -->
      <rect x="208" y="148" width="40" height="28" rx="8" fill="#0D9488"/>
      <text x="228" y="167" fill="#fff" font-weight="600">8</text>
      <text x="280" y="166" fill="#c2f5ea" opacity="0.7">9</text>
      <text x="350" y="166" fill="#c2f5ea" opacity="0.7">10</text>
      <text x="420" y="166" fill="#c2f5ea" opacity="0.35">11</text>
      <text x="472" y="166" fill="#c2f5ea" opacity="0.35">12</text>

      <!-- Week 3 -->
      <text x="88" y="206" fill="#c2f5ea" opacity="0.7">13</text>
      <text x="158" y="206" fill="#c2f5ea" opacity="0.7">14</text>
      <text x="228" y="206" fill="#c2f5ea" opacity="0.7">15</text>
      <text x="280" y="206" fill="#c2f5ea" opacity="0.7">16</text>
      <text x="350" y="206" fill="#c2f5ea" opacity="0.7">17</text>
      <text x="420" y="206" fill="#c2f5ea" opacity="0.35">18</text>
      <text x="472" y="206" fill="#c2f5ea" opacity="0.35">19</text>

      <!-- Week 4 -->
      <text x="88" y="246" fill="#c2f5ea" opacity="0.7">20</text>
      <text x="158" y="246" fill="#c2f5ea" opacity="0.7">21</text>
      <text x="228" y="246" fill="#c2f5ea" opacity="0.7">22</text>
      <text x="280" y="246" fill="#c2f5ea" opacity="0.7">23</text>
      <text x="350" y="246" fill="#c2f5ea" opacity="0.7">24</text>
      <text x="420" y="246" fill="#c2f5ea" opacity="0.35">25</text>
      <text x="472" y="246" fill="#c2f5ea" opacity="0.35">26</text>

      <!-- Week 5 -->
      <text x="88" y="286" fill="#c2f5ea" opacity="0.7">27</text>
      <text x="158" y="286" fill="#c2f5ea" opacity="0.7">28</text>
      <text x="228" y="286" fill="#c2f5ea" opacity="0.7">29</text>
      <text x="280" y="286" fill="#c2f5ea" opacity="0.7">30</text>
    </g>

    <!-- Appointment dots -->
    <circle cx="158" cy="176" r="2.5" fill="#0D9488" opacity="0.8"/>
    <circle cx="350" cy="176" r="2.5" fill="#f59e0b" opacity="0.7"/>
    <circle cx="88" cy="216" r="2.5" fill="#0D9488" opacity="0.8"/>
    <circle cx="228" cy="216" r="2.5" fill="#0D9488" opacity="0.8"/>
    <circle cx="158" cy="256" r="2.5" fill="#0D9488" opacity="0.8"/>
    <circle cx="350" cy="256" r="2.5" fill="#f59e0b" opacity="0.7"/>

    <!-- Divider -->
    <line x1="48" y1="308" x2="512" y2="308" stroke="#0D9488" stroke-opacity="0.12"/>

    <!-- Upcoming label -->
    <text x="60" y="332" fill="#5eead4" font-family="Inter,system-ui,sans-serif" font-size="10" font-weight="600" letter-spacing="0.06em" opacity="0.6">PROXIMAS CITAS</text>

    <!-- Appointment 1 -->
    <rect x="52" y="344" width="456" height="44" rx="10" fill="#0D9488" fill-opacity="0.08" stroke="#0D9488" stroke-opacity="0.14"/>
    <circle cx="78" cy="366" r="12" fill="#0D9488" fill-opacity="0.18"/>
    <text x="78" y="370" text-anchor="middle" fill="#5eead4" font-family="Inter,system-ui,sans-serif" font-size="10" font-weight="500">ML</text>
    <text x="100" y="361" fill="#c2f5ea" font-family="Inter,system-ui,sans-serif" font-size="12" font-weight="500">Maria Lopez</text>
    <text x="100" y="376" fill="#5eead4" font-family="Inter,system-ui,sans-serif" font-size="10" opacity="0.6">10:00 — Consulta individual</text>
    <rect x="448" y="355" width="40" height="20" rx="6" fill="#0D9488" fill-opacity="0.15"/>
    <text x="468" y="369" text-anchor="middle" fill="#0D9488" font-family="Inter,system-ui,sans-serif" font-size="9" font-weight="600">60 min</text>

    <!-- Appointment 2 -->
    <rect x="52" y="396" width="456" height="44" rx="10" fill="#f59e0b" fill-opacity="0.04" stroke="#f59e0b" stroke-opacity="0.1"/>
    <circle cx="78" cy="418" r="12" fill="#f59e0b" fill-opacity="0.15"/>
    <text x="78" y="422" text-anchor="middle" fill="#fbbf24" font-family="Inter,system-ui,sans-serif" font-size="10" font-weight="500">JR</text>
    <text x="100" y="413" fill="#c2f5ea" font-family="Inter,system-ui,sans-serif" font-size="12" font-weight="500">Juan Reyes</text>
    <text x="100" y="428" fill="#5eead4" font-family="Inter,system-ui,sans-serif" font-size="10" opacity="0.6">11:30 — Terapia de pareja</text>
    <rect x="448" y="407" width="40" height="20" rx="6" fill="#f59e0b" fill-opacity="0.12"/>
    <text x="468" y="421" text-anchor="middle" fill="#f59e0b" font-family="Inter,system-ui,sans-serif" font-size="9" font-weight="600">90 min</text>
  </g>
</svg>
