<svg width="480" height="420" viewBox="0 0 480 420" fill="none" xmlns="http://www.w3.org/2000/svg">
  <defs>
    <linearGradient id="cbg" x1="0" y1="0" x2="480" y2="420" gradientUnits="userSpaceOnUse">
      <stop stop-color="#0f2d2a"/><stop offset="1" stop-color="#0a201e"/>
    </linearGradient>
    <filter id="s"><feDropShadow dx="0" dy="4" stdDeviation="12" flood-color="#000" flood-opacity="0.25"/></filter>
  </defs>
  <g filter="url(#s)">
    <rect x="24" y="16" width="432" height="388" rx="16" fill="url(#cbg)" stroke="#0D9488" stroke-opacity="0.18"/>
    <!-- Header -->
    <rect x="24" y="16" width="432" height="50" rx="16" fill="#0D9488" fill-opacity="0.1"/>
    <rect x="24" y="50" width="432" height="16" fill="#0D9488" fill-opacity="0.1"/>
    <circle cx="52" cy="41" r="12" fill="#0D9488" fill-opacity="0.25"/>
    <text x="52" y="45" text-anchor="middle" fill="#5eead4" font-family="Inter,system-ui,sans-serif" font-size="10" font-weight="600">DA</text>
    <text x="74" y="38" fill="#c2f5ea" font-family="Inter,system-ui,sans-serif" font-size="12" font-weight="600">Dra. Andrea Muñoz</text>
    <text x="74" y="52" fill="#5eead4" font-family="Inter,system-ui,sans-serif" font-size="9" opacity="0.6">Psicologia Clinica</text>
    <!-- Online badge -->
    <rect x="370" y="30" width="62" height="22" rx="11" fill="#0D9488" fill-opacity="0.2"/>
    <circle cx="382" cy="41" r="3" fill="#34d399"/>
    <text x="404" y="45" text-anchor="middle" fill="#5eead4" font-family="Inter,system-ui,sans-serif" font-size="9" font-weight="500">Online</text>

    <!-- Service selector -->
    <text x="44" y="92" fill="#5eead4" font-family="Inter,system-ui,sans-serif" font-size="10" font-weight="600" letter-spacing="0.05em" opacity="0.6">ELIGE UN SERVICIO</text>
    <!-- Service 1 - selected -->
    <rect x="44" y="102" width="195" height="48" rx="10" fill="#0D9488" fill-opacity="0.12" stroke="#0D9488" stroke-opacity="0.35"/>
    <text x="60" y="122" fill="#c2f5ea" font-family="Inter,system-ui,sans-serif" font-size="11" font-weight="500">Consulta individual</text>
    <text x="60" y="138" fill="#5eead4" font-family="Inter,system-ui,sans-serif" font-size="9" opacity="0.6">60 min — $35.000</text>
    <circle cx="221" cy="126" r="8" fill="#0D9488" fill-opacity="0.3"/>
    <path d="M217 126l3 3 5-5" stroke="#0D9488" stroke-width="1.5" stroke-linecap="round" stroke-linejoin="round"/>
    <!-- Service 2 -->
    <rect x="247" y="102" width="195" height="48" rx="10" fill="#0D9488" fill-opacity="0.04" stroke="#0D9488" stroke-opacity="0.12"/>
    <text x="263" y="122" fill="#c2f5ea" font-family="Inter,system-ui,sans-serif" font-size="11" font-weight="500" opacity="0.6">Terapia de pareja</text>
    <text x="263" y="138" fill="#5eead4" font-family="Inter,system-ui,sans-serif" font-size="9" opacity="0.4">90 min — $50.000</text>

    <!-- Date picker -->
    <text x="44" y="178" fill="#5eead4" font-family="Inter,system-ui,sans-serif" font-size="10" font-weight="600" letter-spacing="0.05em" opacity="0.6">ELIGE FECHA Y HORA</text>
    <!-- Date chips -->
    <g font-family="Inter,system-ui,sans-serif" font-size="10" text-anchor="middle">
      <rect x="44" y="188" width="56" height="36" rx="8" fill="#0D9488" fill-opacity="0.04" stroke="#0D9488" stroke-opacity="0.12"/>
      <text x="72" y="204" fill="#c2f5ea" opacity="0.5" font-size="9">Lun 6</text>
      <text x="72" y="216" fill="#5eead4" opacity="0.3" font-size="8">--</text>

      <rect x="108" y="188" width="56" height="36" rx="8" fill="#0D9488" fill-opacity="0.04" stroke="#0D9488" stroke-opacity="0.12"/>
      <text x="136" y="204" fill="#c2f5ea" opacity="0.5" font-size="9">Mar 7</text>
      <text x="136" y="216" fill="#5eead4" opacity="0.3" font-size="8">3 hrs</text>

      <rect x="172" y="188" width="56" height="36" rx="8" fill="#0D9488" stroke="#0D9488" stroke-opacity="0.5"/>
      <text x="200" y="204" fill="#fff" font-weight="600" font-size="9">Mie 8</text>
      <text x="200" y="216" fill="#c2f5ea" font-size="8">5 hrs</text>

      <rect x="236" y="188" width="56" height="36" rx="8" fill="#0D9488" fill-opacity="0.04" stroke="#0D9488" stroke-opacity="0.12"/>
      <text x="264" y="204" fill="#c2f5ea" opacity="0.5" font-size="9">Jue 9</text>
      <text x="264" y="216" fill="#5eead4" opacity="0.3" font-size="8">4 hrs</text>

      <rect x="300" y="188" width="56" height="36" rx="8" fill="#0D9488" fill-opacity="0.04" stroke="#0D9488" stroke-opacity="0.12"/>
      <text x="328" y="204" fill="#c2f5ea" opacity="0.5" font-size="9">Vie 10</text>
      <text x="328" y="216" fill="#5eead4" opacity="0.3" font-size="8">2 hrs</text>
    </g>

    <!-- Time slots -->
    <g font-family="Inter,system-ui,sans-serif" font-size="10" text-anchor="middle">
      <rect x="44" y="236" width="68" height="30" rx="8" fill="#0D9488" fill-opacity="0.08" stroke="#0D9488" stroke-opacity="0.15"/>
      <text x="78" y="255" fill="#c2f5ea">09:00</text>
      <rect x="120" y="236" width="68" height="30" rx="8" fill="#0D9488" fill-opacity="0.08" stroke="#0D9488" stroke-opacity="0.15"/>
      <text x="154" y="255" fill="#c2f5ea">10:00</text>
      <rect x="196" y="236" width="68" height="30" rx="8" fill="#0D9488" stroke="#0D9488" stroke-opacity="0.5"/>
      <text x="230" y="255" fill="#fff" font-weight="600">11:00</text>
      <rect x="272" y="236" width="68" height="30" rx="8" fill="#0D9488" fill-opacity="0.08" stroke="#0D9488" stroke-opacity="0.15"/>
      <text x="306" y="255" fill="#c2f5ea">12:00</text>
      <rect x="348" y="236" width="68" height="30" rx="8" fill="#0D9488" fill-opacity="0.08" stroke="#0D9488" stroke-opacity="0.15"/>
      <text x="382" y="255" fill="#c2f5ea">15:00</text>
    </g>

    <!-- Form fields -->
    <text x="44" y="296" fill="#5eead4" font-family="Inter,system-ui,sans-serif" font-size="10" font-weight="600" letter-spacing="0.05em" opacity="0.6">TUS DATOS</text>
    <rect x="44" y="306" width="195" height="34" rx="8" fill="#0D9488" fill-opacity="0.04" stroke="#0D9488" stroke-opacity="0.12"/>
    <text x="60" y="327" fill="#5eead4" font-family="Inter,system-ui,sans-serif" font-size="10" opacity="0.4">Nombre completo</text>
    <rect x="247" y="306" width="195" height="34" rx="8" fill="#0D9488" fill-opacity="0.04" stroke="#0D9488" stroke-opacity="0.12"/>
    <text x="263" y="327" fill="#5eead4" font-family="Inter,system-ui,sans-serif" font-size="10" opacity="0.4">Email</text>

    <!-- CTA button -->
    <rect x="44" y="356" width="398" height="40" rx="10" fill="#0D9488"/>
    <text x="243" y="380" text-anchor="middle" fill="#fff" font-family="Inter,system-ui,sans-serif" font-size="13" font-weight="600">Confirmar reserva</text>
  </g>
</svg>
