<svg width="1600" height="900" viewBox="0 0 1600 900" fill="none" xmlns="http://www.w3.org/2000/svg">
  <defs>
    <linearGradient id="bg" x1="120" y1="70" x2="1410" y2="850" gradientUnits="userSpaceOnUse">
      <stop stop-color="#182B2C"/>
      <stop offset="0.5" stop-color="#294C52"/>
      <stop offset="1" stop-color="#0C1718"/>
    </linearGradient>
    <linearGradient id="ground" x1="800" y1="470" x2="800" y2="900" gradientUnits="userSpaceOnUse">
      <stop stop-color="#30484E"/>
      <stop offset="1" stop-color="#111A1C"/>
    </linearGradient>
    <linearGradient id="glass" x1="615" y1="330" x2="1043" y2="560" gradientUnits="userSpaceOnUse">
      <stop stop-color="#D4EDF0"/>
      <stop offset="1" stop-color="#8DB6BE"/>
    </linearGradient>
    <linearGradient id="pool" x1="1030" y1="658" x2="1322" y2="729" gradientUnits="userSpaceOnUse">
      <stop stop-color="#79D0DB"/>
      <stop offset="1" stop-color="#2F8EA0"/>
    </linearGradient>
  </defs>
  <rect width="1600" height="900" fill="url(#bg)"/>
  <rect x="0" y="470" width="1600" height="430" fill="url(#ground)"/>
  <path d="M0 579C249 546 506 537 799 549C1056 560 1314 592 1600 651V900H0V579Z" fill="#152224"/>
  <path d="M0 654C265 613 523 604 817 615C1098 625 1323 656 1600 720V900H0V654Z" fill="#203134"/>
  <g opacity="0.42">
    <path d="M128 204H236V470H128V204Z" fill="#385156"/>
    <path d="M255 166H372V470H255V166Z" fill="#31484D"/>
    <path d="M393 130H521V470H393V130Z" fill="#415E64"/>
    <path d="M1203 188H1326V470H1203V188Z" fill="#31484D"/>
    <path d="M1347 144H1467V470H1347V144Z" fill="#405D63"/>
  </g>
  <g opacity="0.5">
    <rect x="151" y="236" width="28" height="20" fill="#BEE9EF"/>
    <rect x="183" y="236" width="28" height="20" fill="#7FD0D9"/>
    <rect x="286" y="200" width="28" height="22" fill="#BEE9EF"/>
    <rect x="319" y="200" width="28" height="22" fill="#7FD0D9"/>
    <rect x="352" y="200" width="28" height="22" fill="#BEE9EF"/>
    <rect x="1232" y="224" width="28" height="22" fill="#BEE9EF"/>
    <rect x="1265" y="224" width="28" height="22" fill="#7FD0D9"/>
    <rect x="1376" y="178" width="28" height="22" fill="#BEE9EF"/>
    <rect x="1409" y="178" width="28" height="22" fill="#7FD0D9"/>
  </g>
  <rect x="613" y="301" width="468" height="280" rx="18" fill="#DDE6E5"/>
  <rect x="640" y="331" width="334" height="202" rx="12" fill="url(#glass)"/>
  <rect x="991" y="331" width="63" height="202" rx="10" fill="#ECEFEC"/>
  <rect x="831" y="373" width="103" height="160" rx="8" fill="#7198A2"/>
  <rect x="667" y="373" width="133" height="160" rx="8" fill="#7198A2"/>
  <rect x="640" y="562" width="441" height="38" rx="10" fill="#C7D1D0"/>
  <path d="M573 402H624V600H523L573 402Z" fill="#C8D1CF"/>
  <path d="M1081 331H1145V600H1081V331Z" fill="#E8ECEA"/>
  <path d="M1126 364H1298V600H1126V364Z" fill="#C1CAC8"/>
  <rect x="1148" y="391" width="127" height="130" rx="12" fill="#7C8B87"/>
  <rect x="1167" y="410" width="39" height="92" rx="6" fill="#D5DFDF"/>
  <rect x="1220" y="410" width="39" height="92" rx="6" fill="#D5DFDF"/>
  <path d="M525 600H1314V639H525V600Z" fill="#A8B7B5"/>
  <path d="M955 639H1327L1275 740H914L955 639Z" fill="url(#pool)"/>
  <path d="M618 639H906L946 740H520L618 639Z" fill="#405B5B"/>
  <circle cx="1249" cy="682" r="54" fill="#0F3D47" fill-opacity="0.26"/>
  <circle cx="1188" cy="698" r="34" fill="#9BE4ED" fill-opacity="0.25"/>
  <path d="M536 639H577V742H501L536 639Z" fill="#7D9278"/>
  <path d="M588 639H628V742H552L588 639Z" fill="#90A284"/>
</svg>
