<svg width="1200" height="900" viewBox="0 0 1200 900" fill="none" xmlns="http://www.w3.org/2000/svg">
  <defs>
    <linearGradient id="bg2" x1="80" y1="60" x2="1120" y2="840" gradientUnits="userSpaceOnUse">
      <stop stop-color="#1A2E30"/>
      <stop offset="1" stop-color="#0E1819"/>
    </linearGradient>
    <linearGradient id="card" x1="0" y1="0" x2="0" y2="1">
      <stop stop-color="#EAF6F8"/>
      <stop offset="1" stop-color="#B7D5DA"/>
    </linearGradient>
    <linearGradient id="accent2" x1="0" y1="0" x2="1" y2="1">
      <stop stop-color="#5B7CFF"/>
      <stop offset="1" stop-color="#3232FF"/>
    </linearGradient>
  </defs>
  <rect width="1200" height="900" fill="url(#bg2)"/>
  <rect x="120" y="140" width="960" height="620" rx="36" fill="#244044" fill-opacity="0.55"/>
  <rect x="180" y="200" width="300" height="220" rx="28" fill="url(#card)"/>
  <rect x="210" y="236" width="120" height="14" rx="7" fill="#6FA4AD"/>
  <rect x="210" y="264" width="200" height="12" rx="6" fill="#A8CDD3"/>
  <rect x="210" y="290" width="160" height="12" rx="6" fill="#C5DEE2"/>
  <rect x="210" y="340" width="88" height="28" rx="14" fill="url(#accent2)"/>
  <rect x="520" y="260" width="300" height="220" rx="28" fill="url(#card)"/>
  <rect x="550" y="296" width="120" height="14" rx="7" fill="#6FA4AD"/>
  <rect x="550" y="324" width="200" height="12" rx="6" fill="#A8CDD3"/>
  <rect x="550" y="350" width="160" height="12" rx="6" fill="#C5DEE2"/>
  <rect x="550" y="400" width="88" height="28" rx="14" fill="url(#accent2)"/>
  <rect x="860" y="320" width="180" height="180" rx="28" fill="url(#card)"/>
  <circle cx="950" cy="390" r="42" fill="#E3B45F"/>
  <path d="M930 390L944 404L972 376" stroke="white" stroke-width="8" stroke-linecap="round" stroke-linejoin="round"/>
  <path d="M330 420H870" stroke="#79D0DB" stroke-width="4" stroke-dasharray="12 12"/>
  <circle cx="330" cy="420" r="10" fill="#79D0DB"/>
  <circle cx="670" cy="420" r="10" fill="#79D0DB"/>
  <circle cx="950" cy="420" r="10" fill="#79D0DB"/>
  <rect x="180" y="500" width="840" height="180" rx="28" fill="#1E3336" fill-opacity="0.8"/>
  <rect x="220" y="540" width="180" height="16" rx="8" fill="#6FA4AD"/>
  <rect x="220" y="572" width="320" height="12" rx="6" fill="#4D6E74"/>
  <rect x="220" y="598" width="260" height="12" rx="6" fill="#4D6E74"/>
  <rect x="620" y="548" width="120" height="44" rx="22" fill="url(#accent2)"/>
</svg>
