<svg xmlns="http://www.w3.org/2000/svg" width="1200" height="800" viewBox="0 0 1200 800">
  <defs>
    <linearGradient id="g" x1="0" y1="1" x2="1" y2="0">
      <stop offset="0" stop-color="#A855F7"/>
      <stop offset="1" stop-color="#F97316"/>
    </linearGradient>
  </defs>
  <rect width="1200" height="800" fill="url(#g)"/>
  <circle cx="210" cy="190" r="120" fill="rgba(255,255,255,0.16)"/>
  <circle cx="980" cy="640" r="160" fill="rgba(255,255,255,0.14)"/>
  <rect x="90" y="110" width="1020" height="580" rx="40" fill="rgba(2,6,23,0.20)" stroke="rgba(255,255,255,0.22)" stroke-width="2"/>
  <g fill="rgba(255,255,255,0.92)">
    <text x="140" y="190" font-size="44" font-family="Inter, system-ui, -apple-system, Segoe UI, Roboto, Arial" font-weight="700">Imagen demo</text>
    <text x="140" y="245" font-size="22" font-family="Inter, system-ui, -apple-system, Segoe UI, Roboto, Arial" opacity="0.85">Variante 02 • Placeholder</text>
  </g>
  <g transform="translate(160,340)">
    <rect x="0" y="140" width="880" height="26" rx="13" fill="rgba(255,255,255,0.55)"/>
    <path d="M120 120 C210 40, 520 40, 640 120 L720 140 C760 150, 780 170, 790 205 L790 240 L80 240 L80 205 C80 170, 100 140, 140 132 Z" fill="rgba(255,255,255,0.78)"/>
    <circle cx="250" cy="262" r="52" fill="rgba(255,255,255,0.95)"/>
    <circle cx="650" cy="262" r="52" fill="rgba(255,255,255,0.95)"/>
    <circle cx="250" cy="262" r="28" fill="rgba(15,23,42,0.55)"/>
    <circle cx="650" cy="262" r="28" fill="rgba(15,23,42,0.55)"/>
  </g>
  <text x="1100" y="760" text-anchor="end" font-size="18" font-family="ui-monospace, SFMono-Regular, Menlo, Consolas, monospace" fill="rgba(255,255,255,0.8)">DEMO-02</text>
</svg>
