<svg xmlns="http://www.w3.org/2000/svg" viewBox="0 0 64 64">
  <circle cx="32" cy="32" r="30" fill="#FFB600"/>
  <path
    d="M18 38c0-2.2 1.8-4 4-4h20c2.2 0 4 1.8 4 4v4c0 1.1-.9 2-2 2h-1.2a5.8 5.8 0 0 1-11.6 0H32.8a5.8 5.8 0 0 1-11.6 0H20c-1.1 0-2-.9-2-2v-4Z"
    fill="#000000"
    fill-opacity="0.92"
  />
  <path
    d="M23 34l3.3-7.2c.5-1.1 1.6-1.8 2.8-1.8h6.6c1.2 0 2.3.7 2.8 1.8L44 34H23Z"
    fill="#000000"
    fill-opacity="0.92"
  />
  <circle cx="26.8" cy="48" r="3.4" fill="#000000"/>
  <circle cx="37.2" cy="48" r="3.4" fill="#000000"/>
</svg>
