<svg width="1200" height="675" viewBox="0 0 1200 675" fill="none" xmlns="http://www.w3.org/2000/svg">
  <rect width="1200" height="675" fill="#0F172A"/>
  <radialGradient id="g" cx="0" cy="0" r="1" gradientUnits="userSpaceOnUse" gradientTransform="translate(923 178) rotate(130) scale(580 420)">
    <stop stop-color="#F59E0B"/>
    <stop offset=".45" stop-color="#E11D48"/>
    <stop offset="1" stop-color="#0F172A"/>
  </radialGradient>
  <rect width="1200" height="675" fill="url(#g)" opacity=".88"/>
  <path d="M0 513c165-80 358-76 548-22 213 61 423 76 652-40v224H0V513Z" fill="#020617" opacity=".75"/>
  <path d="M114 382c61-129 214-129 275 0-70 46-205 46-275 0Z" fill="#F8FAFC"/>
  <path d="M80 347c85-167 241-167 327 0-99 59-228 59-327 0Z" fill="#E11D48"/>
  <path d="M189 325c28-42 82-42 110 0" stroke="#FDE68A" stroke-width="17" stroke-linecap="round"/>
  <path d="M516 255h78v242h-78z" fill="#F8FAFC"/>
  <circle cx="555" cy="245" r="45" fill="#F8FAFC"/>
  <rect x="533" y="173" width="44" height="364" rx="22" fill="#FDE68A"/>
  <path d="M711 288h82v195h-82z" fill="#F8FAFC"/>
  <circle cx="752" cy="276" r="42" fill="#F8FAFC"/>
  <text x="80" y="118" fill="#FFFFFF" font-family="Arial, sans-serif" font-size="60" font-weight="800">Noche de Mexico</text>
  <text x="80" y="176" fill="#FFE4E6" font-family="Arial, sans-serif" font-size="30" font-weight="600">Servicios de muestra para el marketplace</text>
</svg>
