<svg width="1200" height="675" viewBox="0 0 1200 675" fill="none" xmlns="http://www.w3.org/2000/svg">
  <rect width="1200" height="675" fill="#111827"/>
  <path d="M0 485c190-105 360-83 514-24 187 72 373 110 686-32v246H0V485Z" fill="#E11D48"/>
  <path d="M0 566c186-59 389-56 604-4 188 45 371 48 596-36v149H0V566Z" fill="#0F172A"/>
  <circle cx="973" cy="136" r="88" fill="#FBBF24"/>
  <path d="M138 388c49-113 188-113 236 0-56 44-180 44-236 0Z" fill="#F8FAFC"/>
  <path d="M102 357c77-151 232-151 309 0-89 52-220 52-309 0Z" fill="#020617"/>
  <path d="M204 337c25-41 79-41 104 0" stroke="#FBBF24" stroke-width="16" stroke-linecap="round"/>
  <rect x="504" y="238" width="92" height="250" rx="46" fill="#F8FAFC"/>
  <rect x="540" y="188" width="21" height="350" rx="10.5" fill="#FBBF24"/>
  <rect x="674" y="250" width="80" height="220" rx="40" fill="#F8FAFC"/>
  <rect x="705" y="210" width="18" height="300" rx="9" fill="#FBBF24"/>
  <text x="80" y="118" fill="#F8FAFC" font-family="Arial, sans-serif" font-size="60" font-weight="800">Mariachi demo</text>
  <text x="80" y="176" fill="#FBCFE8" font-family="Arial, sans-serif" font-size="30" font-weight="600">Ficha de ejemplo sin compras habilitadas</text>
</svg>
