<svg width="256" height="256" viewBox="0 0 256 256" fill="none" xmlns="http://www.w3.org/2000/svg">
  <rect width="256" height="256" rx="64" fill="#F97316"/>
  <circle cx="128" cy="121" r="58" fill="#FFF7ED"/>
  <path d="M62 112c22-43 110-43 132 0-23 15-109 15-132 0Z" fill="#1F2937"/>
  <path d="M82 99c21-27 71-27 92 0" stroke="#16A34A" stroke-width="11" stroke-linecap="round"/>
  <path d="M91 145h74v15c0 21-16 38-37 38s-37-17-37-38v-15Z" fill="#1F2937"/>
  <path d="M110 160c10 7 26 7 36 0" stroke="#FFF7ED" stroke-width="8" stroke-linecap="round"/>
  <path d="M180 72l9 19 21 3-15 15 4 21-19-10-19 10 4-21-15-15 21-3 9-19Z" fill="#FFF7ED"/>
</svg>
